<svg width="70" height="70" viewBox="0 0 70 70" fill="none" xmlns="http://www.w3.org/2000/svg">
<g id="Calling">
<g id="Calling_2" filter="url(#filter0_i_301_4496)">
<path id="Calling_3" fill-rule="evenodd" clip-rule="evenodd" d="M39.7153 7.76022C39.8499 6.57177 40.9126 5.69775 42.0898 5.85063C53.7704 7.15445 62.8445 16.2812 64.1535 28.0416C64.2881 29.2301 63.4374 30.3031 62.2602 30.433C62.1771 30.4416 62.0969 30.4474 62.0167 30.4474C60.9397 30.4474 60.0088 29.631 59.8857 28.5263C58.7972 18.7879 51.287 11.2304 41.6143 10.1486C40.4342 10.016 39.5864 8.94866 39.7153 7.76022ZM11.1896 16.3976C9.71447 18.4398 9.81759 21.059 11.4015 24.5638C11.8913 25.6513 11.4159 26.932 10.336 27.4282C9.25905 27.9243 7.98157 27.4426 7.49177 26.3551C5.24043 21.3735 5.28053 17.2139 7.6178 14.0005C8.11046 13.164 13.5612 6.11984 18.6626 6.45733C20.1377 6.57849 21.4896 7.27367 22.7614 8.52269C24.1105 9.84671 29.7904 16.8014 30.2458 19.011C30.7352 21.3772 29.6805 23.225 28.9102 24.5747L28.9082 24.5782C28.1491 25.908 27.8856 26.4763 28.1463 27.1945C30.0653 31.9195 33.027 35.7761 36.9196 38.577C37.8849 39.2751 38.1083 40.6222 37.418 41.5972C36.9998 42.1856 36.341 42.5029 35.6708 42.5029C35.2383 42.5029 34.8 42.3731 34.4219 42.0991C29.8591 38.8136 26.399 34.3252 24.1362 28.7493C23.1423 25.9945 24.3224 23.9292 25.1846 22.4206C25.8319 21.2898 26.1899 20.6148 26.0381 19.8937C25.6371 18.8523 21.4467 13.2765 19.7596 11.6207C19.2383 11.1044 18.7485 10.8015 18.3847 10.7727C16.4542 10.6832 12.1405 14.8111 11.1896 16.3976ZM44.0582 41.3785C45.6622 40.3631 47.862 38.9814 50.6547 39.5612C52.8459 40.0169 59.7489 45.7371 61.0664 47.0986C62.3067 48.3736 62.997 49.7351 63.1144 51.1485C63.3006 56.459 56.2315 62.0147 55.4238 62.482C53.8799 63.6012 52.0725 64.1666 50.0417 64.1666C48.0196 64.1666 45.7739 63.607 43.3421 62.4705C33.9873 58.5532 19.8405 45.8697 11.8892 34.2305C11.2161 33.2497 11.4625 31.9026 12.4392 31.2219C13.4159 30.5527 14.7564 30.7921 15.4267 31.7815C22.8538 42.6477 36.4306 54.8898 45.0722 58.5099C48.5695 60.1426 51.1731 60.2436 53.1066 58.8474C54.6132 57.9244 58.9039 53.635 58.8266 51.4024C58.8008 51.1399 58.5029 50.6466 57.9959 50.1216C56.3461 48.4197 50.8122 44.2025 49.6551 43.764C48.7328 43.5765 47.7933 44.1246 46.3468 45.039L45.6021 45.5063C44.5853 46.1207 43.2619 45.7861 42.6547 44.7678C42.0418 43.7409 42.3712 42.4111 43.388 41.7967L44.0582 41.3785ZM49.7623 28.7243C49.9628 29.757 50.8622 30.4724 51.8676 30.4724C52.0051 30.4724 52.1454 30.4608 52.2829 30.4349C53.4487 30.207 54.2077 29.0676 53.9814 27.8965C52.8185 21.8965 48.2185 17.2639 42.2607 16.0957C41.1121 15.8966 39.9693 16.6351 39.7401 17.8062C39.5139 18.9774 40.2758 20.1168 41.4387 20.3446C45.6692 21.1725 48.9374 24.4609 49.7623 28.7243Z" fill="url(#paint0_linear_301_4496)"/>
</g>
</g>
<defs>
<filter id="filter0_i_301_4496" x="5.8335" y="5.83325" width="58.334" height="58.3333" filterUnits="userSpaceOnUse" color-interpolation-filters="sRGB">
<feFlood flood-opacity="0" result="BackgroundImageFix"/>
<feBlend mode="normal" in="SourceGraphic" in2="BackgroundImageFix" result="shape"/>
<feColorMatrix in="SourceAlpha" type="matrix" values="0 0 0 0 0 0 0 0 0 0 0 0 0 0 0 0 0 0 127 0" result="hardAlpha"/>
<feOffset dx="-1.62" dy="1.62"/>
<feComposite in2="hardAlpha" operator="arithmetic" k2="-1" k3="1"/>
<feColorMatrix type="matrix" values="0 0 0 0 0.68 0 0 0 0 0.656 0 0 0 0 0.52 0 0 0 1 0"/>
<feBlend mode="normal" in2="shape" result="effect1_innerShadow_301_4496"/>
</filter>
<linearGradient id="paint0_linear_301_4496" x1="5.8335" y1="64.1666" x2="75.8827" y2="29.518" gradientUnits="userSpaceOnUse">
<stop stop-color="#ADA785"/>
<stop offset="1" stop-color="#D6D3C2"/>
</linearGradient>
</defs>
</svg>
