<svg width="70" height="70" viewBox="0 0 70 70" fill="none" xmlns="http://www.w3.org/2000/svg">
<g id="Message">
<g id="Message_2" filter="url(#filter0_i_301_4509)">
<path id="Message_3" fill-rule="evenodd" clip-rule="evenodd" d="M64.1668 30.0619C64.1668 31.2102 63.2428 32.1411 62.1029 32.1411L62.0771 32.0891C61.5296 32.0891 61.0047 31.8701 60.6176 31.4801C60.2305 31.0902 60.0131 30.5613 60.0131 30.0099V25.7995C59.9432 18.7237 54.2662 13.0048 47.2422 12.9344H22.7582C15.7341 13.0048 10.0572 18.7237 9.98726 25.7995V44.2005C10.0572 51.2763 15.7341 56.9952 22.7582 57.0656H47.2422C54.2662 56.9952 59.9432 51.2763 60.0131 44.2005C60.1312 43.1348 61.0255 42.3288 62.09 42.3288C63.1544 42.3288 64.0487 43.1348 64.1668 44.2005C64.1385 53.6048 56.5776 61.2215 47.2422 61.25H22.7582C13.4168 61.2357 5.8477 53.6107 5.8335 44.2005V25.7995C5.8335 16.3833 13.4109 8.75 22.7582 8.75H47.2422C56.5776 8.77854 64.1385 16.3952 64.1668 25.7995V30.0619ZM37.1551 34.5842L49.152 24.9159H49.1778C50.0711 24.2005 51.3689 24.3394 52.0932 25.2278C52.4382 25.6609 52.5969 26.215 52.5339 26.7667C52.4709 27.3184 52.1914 27.8218 51.7578 28.1646L39.7609 37.8589C36.7104 40.3318 32.3624 40.3318 29.312 37.8589L17.2893 28.1646C16.4074 27.435 16.2695 26.1277 16.9797 25.2278C17.3191 24.7965 17.8163 24.5205 18.3596 24.4619C18.9029 24.4033 19.4468 24.5668 19.8692 24.9159L31.9951 34.5842C33.5098 35.7814 35.6404 35.7814 37.1551 34.5842Z" fill="url(#paint0_linear_301_4509)"/>
</g>
</g>
<defs>
<filter id="filter0_i_301_4509" x="5.8335" y="8.75" width="58.3335" height="52.5" filterUnits="userSpaceOnUse" color-interpolation-filters="sRGB">
<feFlood flood-opacity="0" result="BackgroundImageFix"/>
<feBlend mode="normal" in="SourceGraphic" in2="BackgroundImageFix" result="shape"/>
<feColorMatrix in="SourceAlpha" type="matrix" values="0 0 0 0 0 0 0 0 0 0 0 0 0 0 0 0 0 0 127 0" result="hardAlpha"/>
<feOffset dx="-1.62" dy="1.62"/>
<feComposite in2="hardAlpha" operator="arithmetic" k2="-1" k3="1"/>
<feColorMatrix type="matrix" values="0 0 0 0 0.68 0 0 0 0 0.656 0 0 0 0 0.52 0 0 0 1 0"/>
<feBlend mode="normal" in2="shape" result="effect1_innerShadow_301_4509"/>
</filter>
<linearGradient id="paint0_linear_301_4509" x1="5.8335" y1="61.25" x2="72.7948" y2="24.4491" gradientUnits="userSpaceOnUse">
<stop stop-color="#ADA785"/>
<stop offset="1" stop-color="#D6D3C2"/>
</linearGradient>
</defs>
</svg>
